HIERARCHY
ROOT mixamorig:Hips
{
	OFFSET -0.000008 104.274872 1.554316
	CHANNELS 6 Xposition Yposition Zposition Xrotation Yrotation Zrotation
	JOINT mixamorig:Spine
	{
		OFFSET -0.000005 10.181595 0.131519
		CHANNELS 6 Xposition Yposition Zposition Xrotation Yrotation Zrotation
		JOINT mixamorig:Spine1
		{
			OFFSET -0.000000 9.893959 -1.470707
			CHANNELS 6 Xposition Yposition Zposition Xrotation Yrotation Zrotation
			JOINT mixamorig:Spine2
			{
				OFFSET -0.000000 9.220757 -1.370641
				CHANNELS 6 Xposition Yposition Zposition Xrotation Yrotation Zrotation
				JOINT mixamorig:Neck
				{
					OFFSET 0.000001 16.740417 -2.049036
					CHANNELS 6 Xposition Yposition Zposition Xrotation Yrotation Zrotation
					JOINT mixamorig:Head
					{
						OFFSET 0.000000 9.617874 1.685006
						CHANNELS 6 Xposition Yposition Zposition Xrotation Yrotation Zrotation
						JOINT mixamorig:HeadTop_End
						{
							OFFSET 0.000002 22.037354 7.501101
							CHANNELS 6 Xposition Yposition Zposition Xrotation Yrotation Zrotation
							End Site
							{
								OFFSET 0.000168 2310.654297 -282.823242
							}
						}
					}
				}
				JOINT mixamorig:RightShoulder
				{
					OFFSET -4.569970 11.014908 -2.160885
					CHANNELS 6 Xposition Yposition Zposition Xrotation Yrotation Zrotation
					JOINT mixamorig:RightArm
					{
						OFFSET -10.592851 -0.524811 -2.232101
						CHANNELS 6 Xposition Yposition Zposition Xrotation Yrotation Zrotation
						JOINT mixamorig:RightForeArm
						{
							OFFSET -27.841511 0.000031 -0.000004
							CHANNELS 6 Xposition Yposition Zposition Xrotation Yrotation Zrotation
							JOINT mixamorig:RightHand
							{
								OFFSET -28.328831 -0.000015 0.000015
								CHANNELS 6 Xposition Yposition Zposition Xrotation Yrotation Zrotation
								JOINT mixamorig:RightHandThumb1
								{
									OFFSET -2.464806 -1.573990 2.681852
									CHANNELS 6 Xposition Yposition Zposition Xrotation Yrotation Zrotation
									JOINT mixamorig:RightHandThumb2
									{
										OFFSET -3.215179 -1.872803 1.924282
										CHANNELS 6 Xposition Yposition Zposition Xrotation Yrotation Zrotation
										JOINT mixamorig:RightHandThumb3
										{
											OFFSET -2.654831 -1.527969 1.512609
											CHANNELS 6 Xposition Yposition Zposition Xrotation Yrotation Zrotation
											JOINT mixamorig:RightHandThumb4
											{
												OFFSET -2.018814 -1.152008 1.108052
												CHANNELS 6 Xposition Yposition Zposition Xrotation Yrotation Zrotation
												End Site
												{
													OFFSET -188.809540 -114.533607 132.431396
												}
											}
										}
									}
								}
								JOINT mixamorig:RightHandIndex1
								{
									OFFSET -9.108284 -0.517868 2.259835
									CHANNELS 6 Xposition Yposition Zposition Xrotation Yrotation Zrotation
									JOINT mixamorig:RightHandIndex2
									{
										OFFSET -3.699989 0.000000 0.001215
										CHANNELS 6 Xposition Yposition Zposition Xrotation Yrotation Zrotation
										JOINT mixamorig:RightHandIndex3
										{
											OFFSET -2.850006 0.000031 -0.000522
											CHANNELS 6 Xposition Yposition Zposition Xrotation Yrotation Zrotation
											JOINT mixamorig:RightHandIndex4
											{
												OFFSET -2.772186 -0.000015 -0.000020
												CHANNELS 6 Xposition Yposition Zposition Xrotation Yrotation Zrotation
												End Site
												{
													OFFSET -277.218445 0.000000 -0.050231
												}
											}
										}
									}
								}
								JOINT mixamorig:RightHandMiddle1
								{
									OFFSET -9.532516 -0.000031 -0.000023
									CHANNELS 6 Xposition Yposition Zposition Xrotation Yrotation Zrotation
									JOINT mixamorig:RightHandMiddle2
									{
										OFFSET -3.700005 -0.000015 0.003713
										CHANNELS 6 Xposition Yposition Zposition Xrotation Yrotation Zrotation
										JOINT mixamorig:RightHandMiddle3
										{
											OFFSET -2.949974 0.000015 -0.002054
											CHANNELS 6 Xposition Yposition Zposition Xrotation Yrotation Zrotation
											JOINT mixamorig:RightHandMiddle4
											{
												OFFSET -2.946640 0.000000 -0.000156
												CHANNELS 6 Xposition Yposition Zposition Xrotation Yrotation Zrotation
												End Site
												{
													OFFSET -294.664337 0.000000 -0.113670
												}
											}
										}
									}
								}
								JOINT mixamorig:RightHandRing1
								{
									OFFSET -9.103600 -0.043076 -1.865134
									CHANNELS 6 Xposition Yposition Zposition Xrotation Yrotation Zrotation
									JOINT mixamorig:RightHandRing2
									{
										OFFSET -3.379288 0.000000 -0.001055
										CHANNELS 6 Xposition Yposition Zposition Xrotation Yrotation Zrotation
										JOINT mixamorig:RightHandRing3
										{
											OFFSET -2.889687 -0.000015 0.000379
											CHANNELS 6 Xposition Yposition Zposition Xrotation Yrotation Zrotation
											JOINT mixamorig:RightHandRing4
											{
												OFFSET -2.638809 -0.000015 0.000941
												CHANNELS 6 Xposition Yposition Zposition Xrotation Yrotation Zrotation
												End Site
												{
													OFFSET -263.880371 0.000000 0.516020
												}
											}
										}
									}
								}
								JOINT mixamorig:RightHandPinky1
								{
									OFFSET -8.076683 -0.486710 -3.806280
									CHANNELS 6 Xposition Yposition Zposition Xrotation Yrotation Zrotation
									JOINT mixamorig:RightHandPinky2
									{
										OFFSET -3.600014 -0.000015 -0.003747
										CHANNELS 6 Xposition Yposition Zposition Xrotation Yrotation Zrotation
										JOINT mixamorig:RightHandPinky3
										{
											OFFSET -2.099983 0.000000 -0.005739
											CHANNELS 6 Xposition Yposition Zposition Xrotation Yrotation Zrotation
											JOINT mixamorig:RightHandPinky4
											{
												OFFSET -2.115768 -0.000031 -0.003680
												CHANNELS 6 Xposition Yposition Zposition Xrotation Yrotation Zrotation
												End Site
												{
													OFFSET -211.577087 0.000000 -0.350686
												}
											}
										}
									}
								}
							}
						}
					}
				}
				JOINT mixamorig:LeftShoulder
				{
					OFFSET 4.570447 11.014725 -2.160855
					CHANNELS 6 Xposition Yposition Zposition Xrotation Yrotation Zrotation
					JOINT mixamorig:LeftArm
					{
						OFFSET 10.592371 -0.524597 -2.232119
						CHANNELS 6 Xposition Yposition Zposition Xrotation Yrotation Zrotation
						JOINT mixamorig:LeftForeArm
						{
							OFFSET 27.841532 -0.000031 0.000026
							CHANNELS 6 Xposition Yposition Zposition Xrotation Yrotation Zrotation
							JOINT mixamorig:LeftHand
							{
								OFFSET 28.328846 -0.000061 0.000022
								CHANNELS 6 Xposition Yposition Zposition Xrotation Yrotation Zrotation
								JOINT mixamorig:LeftHandThumb1
								{
									OFFSET 2.466141 -1.576172 2.681732
									CHANNELS 6 Xposition Yposition Zposition Xrotation Yrotation Zrotation
									JOINT mixamorig:LeftHandThumb2
									{
										OFFSET 3.217812 -1.872070 1.916482
										CHANNELS 6 Xposition Yposition Zposition Xrotation Yrotation Zrotation
										JOINT mixamorig:LeftHandThumb3
										{
											OFFSET 2.656029 -1.528778 1.514513
											CHANNELS 6 Xposition Yposition Zposition Xrotation Yrotation Zrotation
											JOINT mixamorig:LeftHandThumb4
											{
												OFFSET 2.020889 -1.154053 1.115139
												CHANNELS 6 Xposition Yposition Zposition Xrotation Yrotation Zrotation
												End Site
												{
													OFFSET 190.885437 -115.081749 130.048782
												}
											}
										}
									}
								}
								JOINT mixamorig:LeftHandIndex1
								{
									OFFSET 9.109314 -0.518021 2.259871
									CHANNELS 6 Xposition Yposition Zposition Xrotation Yrotation Zrotation
									JOINT mixamorig:LeftHandIndex2
									{
										OFFSET 3.699989 0.000000 -0.000322
										CHANNELS 6 Xposition Yposition Zposition Xrotation Yrotation Zrotation
										JOINT mixamorig:LeftHandIndex3
										{
											OFFSET 2.850006 0.000000 0.000352
											CHANNELS 6 Xposition Yposition Zposition Xrotation Yrotation Zrotation
											JOINT mixamorig:LeftHandIndex4
											{
												OFFSET 2.774864 -0.000031 -0.000027
												CHANNELS 6 Xposition Yposition Zposition Xrotation Yrotation Zrotation
												End Site
												{
													OFFSET 277.486267 0.000000 -0.009857
												}
											}
										}
									}
								}
								JOINT mixamorig:LeftHandMiddle1
								{
									OFFSET 9.533394 0.000061 0.000044
									CHANNELS 6 Xposition Yposition Zposition Xrotation Yrotation Zrotation
									JOINT mixamorig:LeftHandMiddle2
									{
										OFFSET 3.699989 -0.000015 -0.000231
										CHANNELS 6 Xposition Yposition Zposition Xrotation Yrotation Zrotation
										JOINT mixamorig:LeftHandMiddle3
										{
											OFFSET 2.949997 -0.000015 -0.000059
											CHANNELS 6 Xposition Yposition Zposition Xrotation Yrotation Zrotation
											JOINT mixamorig:LeftHandMiddle4
											{
												OFFSET 2.952896 0.000031 0.000063
												CHANNELS 6 Xposition Yposition Zposition Xrotation Yrotation Zrotation
												End Site
												{
													OFFSET 295.289337 0.000000 0.022810
												}
											}
										}
									}
								}
								JOINT mixamorig:LeftHandRing1
								{
									OFFSET 9.104523 -0.042999 -1.865074
									CHANNELS 6 Xposition Yposition Zposition Xrotation Yrotation Zrotation
									JOINT mixamorig:LeftHandRing2
									{
										OFFSET 3.150009 -0.000031 0.000043
										CHANNELS 6 Xposition Yposition Zposition Xrotation Yrotation Zrotation
										JOINT mixamorig:LeftHandRing3
										{
											OFFSET 2.949982 -0.000015 0.000040
											CHANNELS 6 Xposition Yposition Zposition Xrotation Yrotation Zrotation
											JOINT mixamorig:LeftHandRing4
											{
												OFFSET 2.644348 0.000000 0.000057
												CHANNELS 6 Xposition Yposition Zposition Xrotation Yrotation Zrotation
												End Site
												{
													OFFSET 264.434631 0.000000 0.012105
												}
											}
										}
									}
								}
								JOINT mixamorig:LeftHandPinky1
								{
									OFFSET 8.077789 -0.486847 -3.806259
									CHANNELS 6 Xposition Yposition Zposition Xrotation Yrotation Zrotation
									JOINT mixamorig:LeftHandPinky2
									{
										OFFSET 3.599953 0.000031 0.014727
										CHANNELS 6 Xposition Yposition Zposition Xrotation Yrotation Zrotation
										JOINT mixamorig:LeftHandPinky3
										{
											OFFSET 2.100021 0.000015 0.007705
											CHANNELS 6 Xposition Yposition Zposition Xrotation Yrotation Zrotation
											JOINT mixamorig:LeftHandPinky4
											{
												OFFSET 2.125504 0.000031 0.007517
												CHANNELS 6 Xposition Yposition Zposition Xrotation Yrotation Zrotation
												End Site
												{
													OFFSET 212.550781 0.000000 0.625752
												}
											}
										}
									}
								}
							}
						}
					}
				}
			}
		}
	}
	JOINT mixamorig:RightUpLeg
	{
		OFFSET -8.207787 -6.751648 -1.599560
		CHANNELS 6 Xposition Yposition Zposition Xrotation Yrotation Zrotation
		JOINT mixamorig:RightLeg
		{
			OFFSET -0.000002 -44.370117 0.345942
			CHANNELS 6 Xposition Yposition Zposition Xrotation Yrotation Zrotation
			JOINT mixamorig:RightFoot
			{
				OFFSET 0.000003 -44.423679 -3.043532
				CHANNELS 6 Xposition Yposition Zposition Xrotation Yrotation Zrotation
				JOINT mixamorig:RightToeBase
				{
					OFFSET -0.000002 -8.728671 10.710558
					CHANNELS 6 Xposition Yposition Zposition Xrotation Yrotation Zrotation
					JOINT mixamorig:RightToe_End
					{
						OFFSET -0.000001 -0.000679 9.278119
						CHANNELS 6 Xposition Yposition Zposition Xrotation Yrotation Zrotation
						End Site
						{
							OFFSET 0.000000 -0.067690 927.812134
						}
					}
				}
			}
		}
	}
	JOINT mixamorig:LeftUpLeg
	{
		OFFSET 8.207793 -6.751686 -1.599556
		CHANNELS 6 Xposition Yposition Zposition Xrotation Yrotation Zrotation
		JOINT mixamorig:LeftLeg
		{
			OFFSET -0.000004 -44.370014 0.346954
			CHANNELS 6 Xposition Yposition Zposition Xrotation Yrotation Zrotation
			JOINT mixamorig:LeftFoot
			{
				OFFSET -0.000001 -44.423672 -3.044401
				CHANNELS 6 Xposition Yposition Zposition Xrotation Yrotation Zrotation
				JOINT mixamorig:LeftToeBase
				{
					OFFSET -0.000002 -8.728669 10.710558
					CHANNELS 6 Xposition Yposition Zposition Xrotation Yrotation Zrotation
					JOINT mixamorig:LeftToe_End
					{
						OFFSET -0.000003 -0.000679 9.278133
						CHANNELS 6 Xposition Yposition Zposition Xrotation Yrotation Zrotation
						End Site
						{
							OFFSET 0.000000 -0.068021 927.813477
						}
					}
				}
			}
		}
	}
}
MOTION
Frames: 3
Frame Time: 0.033333
0.000006 104.270477 1.554256 0.000010 0.000003 -0.000113 -0.000005 10.181587 0.131522 0.000001 -0.000003 0.000084 -0.000000 9.893967 -1.470711 0.000001 0.000000 -0.000000 -0.000000 9.220802 -1.370642 0.000000 -0.000000 -0.000000 0.000001 16.740433 -2.049030 0.000000 -0.000000 -0.000000 0.000000 9.617859 1.685014 0.000000 0.000000 0.000000 0.000002 22.037384 7.501101 0.000000 -0.000000 0.000000 -4.569968 11.014880 -2.160881 0.000008 0.000001 -0.000038 -10.592874 -0.524766 -2.231888 74.914184 29.926313 -23.143664 -27.841505 0.000012 0.000564 -49.012358 109.068245 65.229741 -28.328827 0.000018 0.000022 -0.000319 -0.000043 0.000006 -2.464457 -1.573692 2.682292 -53.822256 -178.027433 -30.325224 -3.215287 -1.872594 1.924669 153.328294 30.636144 -1.463816 -2.654961 -1.527893 1.513072 143.587051 27.478249 -38.925573 -2.018823 -1.152002 1.108066 -0.000003 -0.000004 0.000004 -9.108373 -0.517567 2.260063 85.239969 16.569916 -15.306985 -3.700059 0.000310 0.001454 83.486714 14.191195 -12.655040 -2.850084 0.000352 -0.000323 82.322959 11.654832 -10.196656 -2.772168 -0.000020 -0.000022 -0.000004 0.000002 -0.000001 -9.532577 0.000263 0.000170 79.226315 14.273840 -11.949857 -3.700091 0.000314 0.003908 79.912243 11.616846 -9.663143 -2.950051 0.000326 -0.001872 82.499041 12.078911 -10.595514 -2.946640 0.000001 -0.000155 -0.000001 0.000000 0.000000 -9.103674 -0.042776 -1.864934 79.166708 16.818955 -13.900003 -3.379329 0.000313 -0.000881 79.806013 8.300800 -6.959247 -2.889750 0.000341 0.000604 86.941471 6.103931 -5.829731 -2.638800 -0.000027 0.000940 -0.000002 -0.000001 0.000003 -8.076738 -0.486405 -3.806064 76.515952 16.564418 -12.976623 -3.600028 0.000276 -0.003574 80.047939 6.461654 -5.137180 -2.100010 0.000319 -0.005529 83.408283 4.111424 -3.472690 -2.115781 -0.000043 -0.003680 0.000000 0.000001 -0.000004 4.570446 11.014691 -2.160851 -0.000018 0.000010 -0.000021 10.592522 -0.524534 -2.232397 69.447164 -63.657472 46.553473 27.841726 -0.000088 -0.000089 239.281525 -72.240158 255.890578 28.328831 -0.000014 0.000026 0.000019 -0.000088 0.000000 2.466146 -1.576166 2.681859 -47.339399 18.402447 12.603419 3.217824 -1.872000 1.916548 272.408243 39.746192 36.567801 2.656003 -1.528821 1.514594 -149.127659 47.345543 89.933367 2.020891 -1.154052 1.115148 0.000002 0.000004 0.000002 9.109263 -0.517714 2.260113 -127.138958 -8.948050 -17.875860 3.699942 0.000285 -0.000092 53.211962 -173.165458 166.379747 2.850016 0.000296 0.000558 -131.147487 -0.494951 -1.087384 2.774883 -0.000014 -0.000025 0.000002 0.000000 0.000002 9.533361 0.000329 0.000278 -122.003612 -6.985892 -12.557928 3.699975 0.000271 -0.000007 -120.253854 -4.995562 -8.682387 2.950008 0.000270 0.000147 -121.890928 -0.697423 -1.259692 2.952870 -0.000030 0.000069 0.000001 0.000000 0.000001 9.104471 -0.042735 -1.864843 -122.985711 -10.321507 -18.885198 3.149988 0.000109 -0.000108 224.559681 -187.010675 -182.874886 2.949938 0.000125 -0.000160 51.209535 16.550165 -7.973501 2.644325 0.000014 0.000061 -0.000001 0.000000 -0.000000 8.077791 -0.486661 -3.806009 -100.101183 2.940593 2.923192 3.599898 0.000070 0.014568 36.401561 28.043324 -9.374377 2.099946 0.000103 0.007529 -127.551201 151.418040 165.753801 2.125480 0.000000 0.007515 0.000004 0.000001 0.000000 -8.207786 -6.751667 -1.599560 -0.077001 -0.000003 0.000080 -0.000002 -44.370110 0.345938 0.153719 -0.000000 -0.000000 0.000000 -44.423679 -3.043532 -0.076700 0.000000 -0.000002 -0.000006 -8.728667 10.710559 -0.000009 -0.000000 -0.000000 -0.000001 -0.000679 9.278123 0.000000 -0.000000 -0.000000 8.207792 -6.751710 -1.599556 -0.074518 -0.000003 0.000081 -0.000002 -44.370014 0.346960 0.148822 0.000002 0.000000 -0.000001 -44.423664 -3.044403 -0.074314 0.000000 -0.000002 -0.000004 -8.728671 10.710558 0.000007 -0.000000 -0.000000 0.000000 -0.000680 9.278137 -0.000000 0.000000 -0.000001 
0.000006 104.270477 1.554256 0.000010 0.000003 -0.000113 -0.000005 10.181587 0.131522 0.000001 -0.000003 0.000084 -0.000000 9.893967 -1.470711 0.000001 0.000000 -0.000000 -0.000000 9.220802 -1.370642 0.000000 -0.000000 -0.000000 0.000001 16.740433 -2.049030 0.000000 -0.000000 -0.000000 0.000000 9.617859 1.685014 0.000000 0.000000 0.000000 0.000002 22.037384 7.501101 0.000000 -0.000000 0.000000 -4.569968 11.014880 -2.160881 0.000008 0.000001 -0.000038 -10.592872 -0.524770 -2.231887 74.987219 30.507313 -23.631944 -27.841503 0.000008 0.000532 -49.346529 109.285322 65.840879 -28.328827 0.000020 0.000021 -0.000319 -0.000046 0.000006 -2.464485 -1.573688 2.682295 -53.634795 -177.553923 -29.421661 -3.215275 -1.872596 1.924665 153.178877 30.665473 -1.184368 -2.654954 -1.527851 1.513075 143.678411 27.501886 -38.296010 -2.018831 -1.151999 1.108071 -0.000003 -0.000002 0.000004 -9.108386 -0.517556 2.260050 85.883263 16.339103 -15.262748 -3.700084 0.000311 0.001464 83.733755 13.971207 -12.511937 -2.850086 0.000353 -0.000325 82.362014 11.442237 -10.017197 -2.772176 -0.000015 -0.000019 0.000000 0.000000 -0.000001 -9.532582 0.000264 0.000152 79.306911 13.811723 -11.581411 -3.700066 0.000321 0.003901 79.646945 11.183963 -9.256362 -2.950056 0.000327 -0.001881 81.787888 11.836699 -10.253993 -2.946620 -0.000000 -0.000150 -0.000002 0.000000 0.000001 -9.103704 -0.042780 -1.864923 79.379236 16.335097 -13.548070 -3.379303 0.000298 -0.000882 79.879568 7.881211 -6.616381 -2.889731 0.000365 0.000563 86.500220 5.822543 -5.520059 -2.638812 -0.000012 0.000942 -0.000004 0.000003 0.000001 -8.076746 -0.486404 -3.806071 76.646477 16.105612 -12.641974 -3.600027 0.000276 -0.003563 80.319466 5.996029 -4.770657 -2.100018 0.000317 -0.005526 83.506528 3.840296 -3.237406 -2.115752 -0.000050 -0.003680 -0.000001 -0.000000 -0.000000 4.570446 11.014691 -2.160851 -0.000018 0.000010 -0.000021 10.592529 -0.524530 -2.232397 69.371629 -63.087889 46.034553 27.841730 -0.000078 -0.000085 239.086674 -72.516050 255.390335 28.328829 -0.000013 0.000025 0.000023 -0.000088 0.000001 2.466147 -1.576166 2.681850 -47.093321 19.872753 12.484102 3.217824 -1.872000 1.916555 272.457448 41.664215 37.142473 2.655974 -1.528801 1.514607 -153.607444 49.073157 95.746855 2.020895 -1.154051 1.115134 0.000004 0.000006 0.000004 9.109270 -0.517717 2.260100 -127.674732 -7.854146 -15.893698 3.699961 0.000251 -0.000106 52.881688 -174.504339 168.949893 2.850024 0.000292 0.000542 -131.198850 0.955814 2.109291 2.774875 -0.000029 -0.000030 0.000000 0.000000 -0.000001 9.533367 0.000339 0.000267 -122.605966 -6.058803 -11.032711 3.699974 0.000285 -0.000011 -120.410935 -4.730328 -8.248352 2.950005 0.000245 0.000153 -121.477127 -0.329215 -0.591938 2.952864 0.000001 0.000049 0.000001 0.000002 0.000004 9.104474 -0.042704 -1.864862 -127.348781 -9.846426 -19.753942 3.149996 0.000096 -0.000106 224.481270 -184.906458 -182.006824 2.949947 0.000112 -0.000150 48.955545 15.844861 -7.249732 2.644324 0.000032 0.000055 0.000001 -0.000000 0.000000 8.077812 -0.486636 -3.806001 -107.626795 4.993806 6.128220 3.599895 0.000048 0.014561 35.805727 28.528870 -9.380845 2.099915 0.000105 0.007524 -129.796571 151.190117 166.327469 2.125523 -0.000014 0.007517 0.000000 -0.000000 -0.000001 -8.207786 -6.751667 -1.599560 -0.077001 -0.000003 0.000080 -0.000002 -44.370110 0.345938 0.153719 -0.000000 -0.000000 0.000000 -44.423679 -3.043532 -0.076700 0.000000 -0.000002 -0.000006 -8.728667 10.710559 -0.000009 -0.000000 -0.000000 -0.000001 -0.000679 9.278123 0.000000 -0.000000 -0.000000 8.207792 -6.751710 -1.599556 -0.074518 -0.000003 0.000081 -0.000002 -44.370014 0.346960 0.148822 0.000002 0.000000 -0.000001 -44.423664 -3.044403 -0.074314 0.000000 -0.000002 -0.000004 -8.728671 10.710558 0.000007 -0.000000 -0.000000 0.000000 -0.000680 9.278137 -0.000000 0.000000 -0.000001 
0.000006 104.270477 1.554256 0.000010 0.000003 -0.000113 -0.000005 10.181587 0.131522 0.000001 -0.000003 0.000084 -0.000000 9.893967 -1.470711 0.000001 0.000000 -0.000000 -0.000000 9.220802 -1.370642 0.000000 -0.000000 -0.000000 0.000001 16.740433 -2.049030 0.000000 -0.000000 -0.000000 0.000000 9.617859 1.685014 0.000000 0.000000 0.000000 0.000002 22.037384 7.501101 0.000000 -0.000000 0.000000 -4.569968 11.014880 -2.160881 0.000008 0.000001 -0.000038 -10.592872 -0.524772 -2.231897 75.015114 30.843290 -23.909036 -27.841509 0.000009 0.000543 -49.577714 109.677190 66.499357 -28.328827 0.000006 0.000030 -0.000319 -0.000044 0.000006 -2.464459 -1.573682 2.682299 -53.892668 -178.602234 -30.877513 -3.215271 -1.872594 1.924664 153.260607 30.519638 -2.191005 -2.654962 -1.527865 1.513067 143.757396 27.470744 -38.511168 -2.018827 -1.151999 1.108043 -0.000003 0.000000 0.000005 -9.108396 -0.517558 2.260062 86.125694 16.343222 -15.330715 -3.700051 0.000309 0.001441 83.330835 14.092147 -12.532315 -2.850090 0.000350 -0.000325 81.815523 11.529989 -9.997911 -2.772148 -0.000015 -0.000019 -0.000001 -0.000001 -0.000000 -9.532586 0.000261 0.000159 79.242448 13.890299 -11.633708 -3.700058 0.000317 0.003902 79.356321 11.424132 -9.408534 -2.950047 0.000322 -0.001877 81.486629 11.938068 -10.287486 -2.946639 0.000001 -0.000152 0.000001 -0.000001 -0.000000 -9.103697 -0.042780 -1.864924 79.298121 16.321794 -13.517665 -3.379317 0.000317 -0.000872 79.543290 8.053077 -6.720411 -2.889745 0.000349 0.000583 86.168997 5.953213 -5.610549 -2.638796 -0.000027 0.000938 -0.000005 -0.000001 0.000001 -8.076750 -0.486398 -3.806056 76.683353 16.166844 -12.698996 -3.600022 0.000275 -0.003572 80.115332 5.935024 -4.702369 -2.100022 0.000319 -0.005535 83.298002 3.763288 -3.157290 -2.115780 -0.000028 -0.003678 0.000001 0.000000 0.000001 4.570446 11.014691 -2.160851 -0.000018 0.000010 -0.000021 10.592522 -0.524521 -2.232399 69.320123 -62.682039 45.667891 27.841722 -0.000075 -0.000104 239.008263 -72.440863 255.378178 28.328838 -0.000028 0.000037 0.000021 -0.000089 0.000001 2.466154 -1.576170 2.681842 -46.731820 20.261249 12.328622 3.217818 -1.872005 1.916543 272.672736 42.008269 37.114445 2.655962 -1.528814 1.514605 -155.137106 49.637655 97.755218 2.020891 -1.154048 1.115139 0.000001 0.000002 0.000003 9.109272 -0.517733 2.260088 -127.739468 -7.676079 -15.558216 3.699970 0.000273 -0.000107 52.673866 -175.045222 169.985035 2.850026 0.000293 0.000556 -132.354777 1.362906 3.088763 2.774888 -0.000032 -0.000014 0.000001 -0.000001 0.000003 9.533376 0.000340 0.000261 -123.034629 -5.774245 -10.609538 3.699983 0.000298 -0.000005 -121.500104 -4.521417 -8.060851 2.950007 0.000259 0.000158 -122.891496 -0.004271 -0.012372 2.952873 -0.000014 0.000073 -0.000001 -0.000001 0.000000 9.104457 -0.042712 -1.864876 -130.729329 -9.292816 -20.102712 3.150002 0.000105 -0.000107 225.777067 -185.107101 -182.156733 2.949933 0.000106 -0.000148 48.133952 15.564531 -6.985589 2.644323 0.000045 0.000069 0.000003 -0.000000 0.000001 8.077813 -0.486646 -3.806041 -112.278406 6.778314 9.309837 3.599900 0.000057 0.014561 36.845855 27.970011 -9.469130 2.099924 0.000095 0.007538 -131.347133 151.827141 167.104895 2.125517 -0.000001 0.007517 -0.000004 0.000001 0.000001 -8.207786 -6.751667 -1.599560 -0.077001 -0.000003 0.000080 -0.000002 -44.370110 0.345938 0.153719 -0.000000 -0.000000 0.000000 -44.423679 -3.043532 -0.076700 0.000000 -0.000002 -0.000006 -8.728667 10.710559 -0.000009 -0.000000 -0.000000 -0.000001 -0.000679 9.278123 0.000000 -0.000000 -0.000000 8.207792 -6.751710 -1.599556 -0.074518 -0.000003 0.000081 -0.000002 -44.370014 0.346960 0.148822 0.000002 0.000000 -0.000001 -44.423664 -3.044403 -0.074314 0.000000 -0.000002 -0.000004 -8.728671 10.710558 0.000007 -0.000000 -0.000000 0.000000 -0.000680 9.278137 -0.000000 0.000000 -0.000001 
